STARTFONT 2.1
FONT -Gohu-Gohufont-Bold-R-Normal--14-100-100-100-C-80-ISO8859-1
SIZE 14 100 100
FONTBOUNDINGBOX 16 28 0 -6
STARTPROPERTIES 8
DEFAULT_CHAR 255
FACE_NAME "-Gohu-Gohufont-Bold-R-Normal--14-100-100-100-C-80-ISO8859-1"
FONT_ASCENT 22
FONT_DESCENT 6
PIXEL_SIZE 20
POINT_SIZE 140
RESOLUTION_X 100
RESOLUTION_Y 100
ENDPROPERTIES
CHARS 191
STARTCHAR space
ENCODING 32
SWIDTH 800 0
DWIDTH 16 0
BBX 16 28 0 -6
BITMAP
0000
0000
0000
0000
0000
0000
0000
0000
0000
0000
0000
0000
0000
0000
0000
0000
0000
0000
0000
0000
0000
0000
0000
0000
0000
0000
0000
0000
ENDCHAR
STARTCHAR exclam
ENCODING 33
SWIDTH 800 0
DWIDTH 16 0
BBX 16 28 0 -6
BITMAP
0000
0000
03C0
03C0
03C0
03C0
03C0
03C0
03C0
03C0
03C0
03C0
03C0
03C0
03C0
03C0
0000
0000
03C0
03C0
03C0
03C0
0000
0000
0000
0000
0000
0000
ENDCHAR
STARTCHAR quotedbl
ENCODING 34
SWIDTH 800 0
DWIDTH 16 0
BBX 16 28 0 -6
BITMAP
0000
0000
0F3C
0F3C
0F3C
0F3C
0F3C
0F3C
0000
0000
0000
0000
0000
0000
0000
0000
0000
0000
0000
0000
0000
0000
0000
0000
0000
0000
0000
0000
ENDCHAR
STARTCHAR numbersign
ENCODING 35
SWIDTH 800 0
DWIDTH 16 0
BBX 16 28 0 -6
BITMAP
0000
0000
3C3C
3C3C
3C3C
3C3C
3C3C
3C3C
FFFF
FFFF
3C3C
3C3C
3C3C
3C3C
FFFF
FFFF
3C3C
3C3C
3C3C
3C3C
3C3C
3C3C
0000
0000
0000
0000
0000
0000
ENDCHAR
STARTCHAR dollar
ENCODING 36
SWIDTH 800 0
DWIDTH 16 0
BBX 16 28 0 -6
BITMAP
03C0
03C0
03C0
03C0
3FFC
3FFC
F3CF
F3CF
F3C0
F3C0
F3C0
F3C0
3FFC
3FFC
03CF
03CF
03CF
03CF
F3CF
F3CF
3FFC
3FFC
03C0
03C0
03C0
03C0
0000
0000
ENDCHAR
STARTCHAR percent
ENCODING 37
SWIDTH 800 0
DWIDTH 16 0
BBX 16 28 0 -6
BITMAP
0000
0000
0000
0000
3F3C
3F3C
F3FC
F3FC
3FF0
3FF0
00F0
00F0
03C0
03C0
03C0
03C0
0F00
0F00
0FFC
0FFC
3FCF
3FCF
3CFC
3CFC
0000
0000
0000
0000
ENDCHAR
STARTCHAR ampersand
ENCODING 38
SWIDTH 800 0
DWIDTH 16 0
BBX 16 28 0 -6
BITMAP
0000
0000
03F0
03F0
0F3C
0F3C
0F3C
0F3C
03F0
03F0
0FC0
0FC0
3CFF
3CFF
3C3C
3C3C
3C3C
3C3C
3C3C
3C3C
0FFF
0FFF
0000
0000
0000
0000
0000
0000
ENDCHAR
STARTCHAR quotesingle
ENCODING 39
SWIDTH 800 0
DWIDTH 16 0
BBX 16 28 0 -6
BITMAP
0000
0000
03C0
03C0
03C0
03C0
03C0
03C0
03C0
03C0
0000
0000
0000
0000
0000
0000
0000
0000
0000
0000
0000
0000
0000
0000
0000
0000
0000
0000
ENDCHAR
STARTCHAR parenleft
ENCODING 40
SWIDTH 800 0
DWIDTH 16 0
BBX 16 28 0 -6
BITMAP
0000
0000
00F0
00F0
03C0
03C0
0F00
0F00
0F00
0F00
3C00
3C00
3C00
3C00
3C00
3C00
3C00
3C00
0F00
0F00
0F00
0F00
03C0
03C0
00F0
00F0
0000
0000
ENDCHAR
STARTCHAR parenright
ENCODING 41
SWIDTH 800 0
DWIDTH 16 0
BBX 16 28 0 -6
BITMAP
0000
0000
0F00
0F00
03C0
03C0
00F0
00F0
00F0
00F0
003C
003C
003C
003C
003C
003C
003C
003C
00F0
00F0
00F0
00F0
03C0
03C0
0F00
0F00
0000
0000
ENDCHAR
STARTCHAR asterisk
ENCODING 42
SWIDTH 800 0
DWIDTH 16 0
BBX 16 28 0 -6
BITMAP
0000
0000
0000
0000
0000
0000
03C0
03C0
F3CF
F3CF
3FFC
3FFC
0FF0
0FF0
3FFC
3FFC
F3CF
F3CF
03C0
03C0
0000
0000
0000
0000
0000
0000
0000
0000
ENDCHAR
STARTCHAR plus
ENCODING 43
SWIDTH 800 0
DWIDTH 16 0
BBX 16 28 0 -6
BITMAP
0000
0000
0000
0000
0000
0000
03C0
03C0
03C0
03C0
03C0
03C0
FFFF
FFFF
03C0
03C0
03C0
03C0
03C0
03C0
0000
0000
0000
0000
0000
0000
0000
0000
ENDCHAR
STARTCHAR comma
ENCODING 44
SWIDTH 800 0
DWIDTH 16 0
BBX 16 28 0 -6
BITMAP
0000
0000
0000
0000
0000
0000
0000
0000
0000
0000
0000
0000
0000
0000
0000
0000
0000
0000
0FC0
0FC0
0FC0
0FC0
03C0
03C0
0F00
0F00
0000
0000
ENDCHAR
STARTCHAR hyphen
ENCODING 45
SWIDTH 800 0
DWIDTH 16 0
BBX 16 28 0 -6
BITMAP
0000
0000
0000
0000
0000
0000
0000
0000
0000
0000
0000
0000
3FFC
3FFC
0000
0000
0000
0000
0000
0000
0000
0000
0000
0000
0000
0000
0000
0000
ENDCHAR
STARTCHAR period
ENCODING 46
SWIDTH 800 0
DWIDTH 16 0
BBX 16 28 0 -6
BITMAP
0000
0000
0000
0000
0000
0000
0000
0000
0000
0000
0000
0000
0000
0000
0000
0000
0000
0000
0FC0
0FC0
0FC0
0FC0
0000
0000
0000
0000
0000
0000
ENDCHAR
STARTCHAR slash
ENCODING 47
SWIDTH 800 0
DWIDTH 16 0
BBX 16 28 0 -6
BITMAP
000F
000F
000F
000F
003C
003C
003C
003C
00F0
00F0
00F0
00F0
03C0
03C0
03C0
03C0
0F00
0F00
0F00
0F00
3C00
3C00
3C00
3C00
0000
0000
0000
0000
ENDCHAR
STARTCHAR zero
ENCODING 48
SWIDTH 800 0
DWIDTH 16 0
BBX 16 28 0 -6
BITMAP
0000
0000
0000
0000
0FFC
0FFC
3C0F
3C0F
3C3F
3C3F
3CFF
3CFF
3FCF
3FCF
3F0F
3F0F
3C0F
3C0F
3C0F
3C0F
0FFC
0FFC
0000
0000
0000
0000
0000
0000
ENDCHAR
STARTCHAR one
ENCODING 49
SWIDTH 800 0
DWIDTH 16 0
BBX 16 28 0 -6
BITMAP
0000
0000
0000
0000
00F0
00F0
03F0
03F0
0FF0
0FF0
3CF0
3CF0
00F0
00F0
00F0
00F0
00F0
00F0
00F0
00F0
00F0
00F0
0000
0000
0000
0000
0000
0000
ENDCHAR
STARTCHAR two
ENCODING 50
SWIDTH 800 0
DWIDTH 16 0
BBX 16 28 0 -6
BITMAP
0000
0000
0000
0000
0FFC
0FFC
3C0F
3C0F
3C0F
3C0F
003C
003C
00F0
00F0
03C0
03C0
0F00
0F00
3C00
3C00
3FFF
3FFF
0000
0000
0000
0000
0000
0000
ENDCHAR
STARTCHAR three
ENCODING 51
SWIDTH 800 0
DWIDTH 16 0
BBX 16 28 0 -6
BITMAP
0000
0000
0000
0000
0FFC
0FFC
3C0F
3C0F
000F
000F
000F
000F
03FC
03FC
000F
000F
000F
000F
3C0F
3C0F
0FFC
0FFC
0000
0000
0000
0000
0000
0000
ENDCHAR
STARTCHAR four
ENCODING 52
SWIDTH 800 0
DWIDTH 16 0
BBX 16 28 0 -6
BITMAP
0000
0000
0000
0000
003C
003C
00FC
00FC
03FC
03FC
0F3C
0F3C
3C3C
3C3C
3FFF
3FFF
003C
003C
003C
003C
003C
003C
0000
0000
0000
0000
0000
0000
ENDCHAR
STARTCHAR five
ENCODING 53
SWIDTH 800 0
DWIDTH 16 0
BBX 16 28 0 -6
BITMAP
0000
0000
0000
0000
3FFF
3FFF
3C00
3C00
3C00
3C00
3FFC
3FFC
000F
000F
000F
000F
000F
000F
3C0F
3C0F
0FFC
0FFC
0000
0000
0000
0000
0000
0000
ENDCHAR
STARTCHAR six
ENCODING 54
SWIDTH 800 0
DWIDTH 16 0
BBX 16 28 0 -6
BITMAP
0000
0000
0000
0000
0FFC
0FFC
3C00
3C00
3C00
3C00
3FFC
3FFC
3C0F
3C0F
3C0F
3C0F
3C0F
3C0F
3C0F
3C0F
0FFC
0FFC
0000
0000
0000
0000
0000
0000
ENDCHAR
STARTCHAR seven
ENCODING 55
SWIDTH 800 0
DWIDTH 16 0
BBX 16 28 0 -6
BITMAP
0000
0000
0000
0000
3FFF
3FFF
000F
000F
003C
003C
003C
003C
00F0
00F0
00F0
00F0
03C0
03C0
03C0
03C0
03C0
03C0
0000
0000
0000
0000
0000
0000
ENDCHAR
STARTCHAR eight
ENCODING 56
SWIDTH 800 0
DWIDTH 16 0
BBX 16 28 0 -6
BITMAP
0000
0000
0000
0000
0FFC
0FFC
3C0F
3C0F
3C0F
3C0F
3C0F
3C0F
0FFC
0FFC
3C0F
3C0F
3C0F
3C0F
3C0F
3C0F
0FFC
0FFC
0000
0000
0000
0000
0000
0000
ENDCHAR
STARTCHAR nine
ENCODING 57
SWIDTH 800 0
DWIDTH 16 0
BBX 16 28 0 -6
BITMAP
0000
0000
0000
0000
0FFC
0FFC
3C0F
3C0F
3C0F
3C0F
3C0F
3C0F
0FFF
0FFF
000F
000F
000F
000F
003C
003C
0FF0
0FF0
0000
0000
0000
0000
0000
0000
ENDCHAR
STARTCHAR colon
ENCODING 58
SWIDTH 800 0
DWIDTH 16 0
BBX 16 28 0 -6
BITMAP
0000
0000
0000
0000
0000
0000
0000
0000
03F0
03F0
03F0
03F0
0000
0000
0000
0000
0000
0000
03F0
03F0
03F0
03F0
0000
0000
0000
0000
0000
0000
ENDCHAR
STARTCHAR semicolon
ENCODING 59
SWIDTH 800 0
DWIDTH 16 0
BBX 16 28 0 -6
BITMAP
0000
0000
0000
0000
0000
0000
0000
0000
0FC0
0FC0
0FC0
0FC0
0000
0000
0000
0000
0000
0000
0FC0
0FC0
0FC0
0FC0
03C0
03C0
0F00
0F00
0000
0000
ENDCHAR
STARTCHAR less
ENCODING 60
SWIDTH 800 0
DWIDTH 16 0
BBX 16 28 0 -6
BITMAP
0000
0000
0000
0000
003C
003C
00F0
00F0
03C0
03C0
0F00
0F00
3C00
3C00
0F00
0F00
03C0
03C0
00F0
00F0
003C
003C
0000
0000
0000
0000
0000
0000
ENDCHAR
STARTCHAR equal
ENCODING 61
SWIDTH 800 0
DWIDTH 16 0
BBX 16 28 0 -6
BITMAP
0000
0000
0000
0000
0000
0000
0000
0000
3FFC
3FFC
0000
0000
0000
0000
0000
0000
3FFC
3FFC
0000
0000
0000
0000
0000
0000
0000
0000
0000
0000
ENDCHAR
STARTCHAR greater
ENCODING 62
SWIDTH 800 0
DWIDTH 16 0
BBX 16 28 0 -6
BITMAP
0000
0000
0000
0000
3C00
3C00
0F00
0F00
03C0
03C0
00F0
00F0
003C
003C
00F0
00F0
03C0
03C0
0F00
0F00
3C00
3C00
0000
0000
0000
0000
0000
0000
ENDCHAR
STARTCHAR question
ENCODING 63
SWIDTH 800 0
DWIDTH 16 0
BBX 16 28 0 -6
BITMAP
0000
0000
0FFC
0FFC
3C0F
3C0F
000F
000F
000F
000F
003C
003C
00F0
00F0
03C0
03C0
0000
0000
03C0
03C0
03C0
03C0
0000
0000
0000
0000
0000
0000
ENDCHAR
STARTCHAR at
ENCODING 64
SWIDTH 800 0
DWIDTH 16 0
BBX 16 28 0 -6
BITMAP
0000
0000
3FFC
3FFC
F00F
F00F
F3FF
F3FF
FF0F
FF0F
FF0F
FF0F
FF0F
FF0F
FF3F
FF3F
F3FF
F3FF
F000
F000
3FFF
3FFF
0000
0000
0000
0000
0000
0000
ENDCHAR
STARTCHAR A
ENCODING 65
SWIDTH 800 0
DWIDTH 16 0
BBX 16 28 0 -6
BITMAP
0000
0000
0000
0000
0FFC
0FFC
3C0F
3C0F
3C0F
3C0F
3C0F
3C0F
3FFF
3FFF
3C0F
3C0F
3C0F
3C0F
3C0F
3C0F
3C0F
3C0F
0000
0000
0000
0000
0000
0000
ENDCHAR
STARTCHAR B
ENCODING 66
SWIDTH 800 0
DWIDTH 16 0
BBX 16 28 0 -6
BITMAP
0000
0000
0000
0000
3FFC
3FFC
3C0F
3C0F
3C0F
3C0F
3C0F
3C0F
3FFC
3FFC
3C0F
3C0F
3C0F
3C0F
3C0F
3C0F
3FFC
3FFC
0000
0000
0000
0000
0000
0000
ENDCHAR
STARTCHAR C
ENCODING 67
SWIDTH 800 0
DWIDTH 16 0
BBX 16 28 0 -6
BITMAP
0000
0000
0000
0000
0FFC
0FFC
3C0F
3C0F
3C00
3C00
3C00
3C00
3C00
3C00
3C00
3C00
3C00
3C00
3C0F
3C0F
0FFC
0FFC
0000
0000
0000
0000
0000
0000
ENDCHAR
STARTCHAR D
ENCODING 68
SWIDTH 800 0
DWIDTH 16 0
BBX 16 28 0 -6
BITMAP
0000
0000
0000
0000
3FF0
3FF0
3C3C
3C3C
3C0F
3C0F
3C0F
3C0F
3C0F
3C0F
3C0F
3C0F
3C0F
3C0F
3C3C
3C3C
3FF0
3FF0
0000
0000
0000
0000
0000
0000
ENDCHAR
STARTCHAR E
ENCODING 69
SWIDTH 800 0
DWIDTH 16 0
BBX 16 28 0 -6
BITMAP
0000
0000
0000
0000
3FFF
3FFF
3C00
3C00
3C00
3C00
3C00
3C00
3FF0
3FF0
3C00
3C00
3C00
3C00
3C00
3C00
3FFF
3FFF
0000
0000
0000
0000
0000
0000
ENDCHAR
STARTCHAR F
ENCODING 70
SWIDTH 800 0
DWIDTH 16 0
BBX 16 28 0 -6
BITMAP
0000
0000
0000
0000
3FFF
3FFF
3C00
3C00
3C00
3C00
3C00
3C00
3FF0
3FF0
3C00
3C00
3C00
3C00
3C00
3C00
3C00
3C00
0000
0000
0000
0000
0000
0000
ENDCHAR
STARTCHAR G
ENCODING 71
SWIDTH 800 0
DWIDTH 16 0
BBX 16 28 0 -6
BITMAP
0000
0000
0000
0000
0FFC
0FFC
3C0F
3C0F
3C00
3C00
3C00
3C00
3CFF
3CFF
3C0F
3C0F
3C0F
3C0F
3C0F
3C0F
0FFC
0FFC
0000
0000
0000
0000
0000
0000
ENDCHAR
STARTCHAR H
ENCODING 72
SWIDTH 800 0
DWIDTH 16 0
BBX 16 28 0 -6
BITMAP
0000
0000
0000
0000
3C0F
3C0F
3C0F
3C0F
3C0F
3C0F
3C0F
3C0F
3FFF
3FFF
3C0F
3C0F
3C0F
3C0F
3C0F
3C0F
3C0F
3C0F
0000
0000
0000
0000
0000
0000
ENDCHAR
STARTCHAR I
ENCODING 73
SWIDTH 800 0
DWIDTH 16 0
BBX 16 28 0 -6
BITMAP
0000
0000
0000
0000
0FF0
0FF0
03C0
03C0
03C0
03C0
03C0
03C0
03C0
03C0
03C0
03C0
03C0
03C0
03C0
03C0
0FF0
0FF0
0000
0000
0000
0000
0000
0000
ENDCHAR
STARTCHAR J
ENCODING 74
SWIDTH 800 0
DWIDTH 16 0
BBX 16 28 0 -6
BITMAP
0000
0000
0000
0000
000F
000F
000F
000F
000F
000F
000F
000F
000F
000F
000F
000F
3C0F
3C0F
3C0F
3C0F
0FFC
0FFC
0000
0000
0000
0000
0000
0000
ENDCHAR
STARTCHAR K
ENCODING 75
SWIDTH 800 0
DWIDTH 16 0
BBX 16 28 0 -6
BITMAP
0000
0000
0000
0000
3C0F
3C0F
3C3C
3C3C
3CF0
3CF0
3FC0
3FC0
3F00
3F00
3FC0
3FC0
3CF0
3CF0
3C3C
3C3C
3C0F
3C0F
0000
0000
0000
0000
0000
0000
ENDCHAR
STARTCHAR L
ENCODING 76
SWIDTH 800 0
DWIDTH 16 0
BBX 16 28 0 -6
BITMAP
0000
0000
0000
0000
3C00
3C00
3C00
3C00
3C00
3C00
3C00
3C00
3C00
3C00
3C00
3C00
3C00
3C00
3C00
3C00
3FFF
3FFF
0000
0000
0000
0000
0000
0000
ENDCHAR
STARTCHAR M
ENCODING 77
SWIDTH 800 0
DWIDTH 16 0
BBX 16 28 0 -6
BITMAP
0000
0000
0000
0000
F00F
F00F
FC3F
FC3F
FFFF
FFFF
F3CF
F3CF
F3CF
F3CF
F00F
F00F
F00F
F00F
F00F
F00F
F00F
F00F
0000
0000
0000
0000
0000
0000
ENDCHAR
STARTCHAR N
ENCODING 78
SWIDTH 800 0
DWIDTH 16 0
BBX 16 28 0 -6
BITMAP
0000
0000
0000
0000
3C0F
3C0F
3F0F
3F0F
3F0F
3F0F
3FCF
3FCF
3FCF
3FCF
3CFF
3CFF
3CFF
3CFF
3C3F
3C3F
3C3F
3C3F
0000
0000
0000
0000
0000
0000
ENDCHAR
STARTCHAR O
ENCODING 79
SWIDTH 800 0
DWIDTH 16 0
BBX 16 28 0 -6
BITMAP
0000
0000
0000
0000
0FFC
0FFC
3C0F
3C0F
3C0F
3C0F
3C0F
3C0F
3C0F
3C0F
3C0F
3C0F
3C0F
3C0F
3C0F
3C0F
0FFC
0FFC
0000
0000
0000
0000
0000
0000
ENDCHAR
STARTCHAR P
ENCODING 80
SWIDTH 800 0
DWIDTH 16 0
BBX 16 28 0 -6
BITMAP
0000
0000
0000
0000
3FFC
3FFC
3C0F
3C0F
3C0F
3C0F
3C0F
3C0F
3FFC
3FFC
3C00
3C00
3C00
3C00
3C00
3C00
3C00
3C00
0000
0000
0000
0000
0000
0000
ENDCHAR
STARTCHAR Q
ENCODING 81
SWIDTH 800 0
DWIDTH 16 0
BBX 16 28 0 -6
BITMAP
0000
0000
0000
0000
0FFC
0FFC
3C0F
3C0F
3C0F
3C0F
3C0F
3C0F
3C0F
3C0F
3CFF
3CFF
3CFF
3CFF
3C3C
3C3C
0FFF
0FFF
000F
000F
0000
0000
0000
0000
ENDCHAR
STARTCHAR R
ENCODING 82
SWIDTH 800 0
DWIDTH 16 0
BBX 16 28 0 -6
BITMAP
0000
0000
0000
0000
3FFC
3FFC
3C0F
3C0F
3C0F
3C0F
3C0F
3C0F
3FFC
3FFC
3CF0
3CF0
3C3C
3C3C
3C0F
3C0F
3C0F
3C0F
0000
0000
0000
0000
0000
0000
ENDCHAR
STARTCHAR S
ENCODING 83
SWIDTH 800 0
DWIDTH 16 0
BBX 16 28 0 -6
BITMAP
0000
0000
0000
0000
0FFC
0FFC
3C0F
3C0F
3C00
3C00
3C00
3C00
0FFC
0FFC
000F
000F
000F
000F
3C0F
3C0F
0FFC
0FFC
0000
0000
0000
0000
0000
0000
ENDCHAR
STARTCHAR T
ENCODING 84
SWIDTH 800 0
DWIDTH 16 0
BBX 16 28 0 -6
BITMAP
0000
0000
0000
0000
FFFF
FFFF
03C0
03C0
03C0
03C0
03C0
03C0
03C0
03C0
03C0
03C0
03C0
03C0
03C0
03C0
03C0
03C0
0000
0000
0000
0000
0000
0000
ENDCHAR
STARTCHAR U
ENCODING 85
SWIDTH 800 0
DWIDTH 16 0
BBX 16 28 0 -6
BITMAP
0000
0000
0000
0000
3C0F
3C0F
3C0F
3C0F
3C0F
3C0F
3C0F
3C0F
3C0F
3C0F
3C0F
3C0F
3C0F
3C0F
3C0F
3C0F
0FFC
0FFC
0000
0000
0000
0000
0000
0000
ENDCHAR
STARTCHAR V
ENCODING 86
SWIDTH 800 0
DWIDTH 16 0
BBX 16 28 0 -6
BITMAP
0000
0000
0000
0000
3C0F
3C0F
3C0F
3C0F
3C0F
3C0F
3C0F
3C0F
0F3C
0F3C
0F3C
0F3C
0F3C
0F3C
03F0
03F0
03F0
03F0
0000
0000
0000
0000
0000
0000
ENDCHAR
STARTCHAR W
ENCODING 87
SWIDTH 800 0
DWIDTH 16 0
BBX 16 28 0 -6
BITMAP
0000
0000
0000
0000
F00F
F00F
F00F
F00F
F3CF
F3CF
F3CF
F3CF
F3CF
F3CF
FFFF
FFFF
3C3C
3C3C
3C3C
3C3C
3C3C
3C3C
0000
0000
0000
0000
0000
0000
ENDCHAR
STARTCHAR X
ENCODING 88
SWIDTH 800 0
DWIDTH 16 0
BBX 16 28 0 -6
BITMAP
0000
0000
0000
0000
3C0F
3C0F
3C0F
3C0F
0F3C
0F3C
0F3C
0F3C
03F0
03F0
0F3C
0F3C
0F3C
0F3C
3C0F
3C0F
3C0F
3C0F
0000
0000
0000
0000
0000
0000
ENDCHAR
STARTCHAR Y
ENCODING 89
SWIDTH 800 0
DWIDTH 16 0
BBX 16 28 0 -6
BITMAP
0000
0000
0000
0000
F00F
F00F
F00F
F00F
3C3C
3C3C
3C3C
3C3C
0FF0
0FF0
03C0
03C0
03C0
03C0
03C0
03C0
03C0
03C0
0000
0000
0000
0000
0000
0000
ENDCHAR
STARTCHAR Z
ENCODING 90
SWIDTH 800 0
DWIDTH 16 0
BBX 16 28 0 -6
BITMAP
0000
0000
0000
0000
3FFF
3FFF
000F
000F
003C
003C
00F0
00F0
03C0
03C0
0F00
0F00
3C00
3C00
3C00
3C00
3FFF
3FFF
0000
0000
0000
0000
0000
0000
ENDCHAR
STARTCHAR bracketleft
ENCODING 91
SWIDTH 800 0
DWIDTH 16 0
BBX 16 28 0 -6
BITMAP
0000
0000
03FC
03FC
03C0
03C0
03C0
03C0
03C0
03C0
03C0
03C0
03C0
03C0
03C0
03C0
03C0
03C0
03C0
03C0
03C0
03C0
03FC
03FC
0000
0000
0000
0000
ENDCHAR
STARTCHAR backslash
ENCODING 92
SWIDTH 800 0
DWIDTH 16 0
BBX 16 28 0 -6
BITMAP
3C00
3C00
3C00
3C00
0F00
0F00
0F00
0F00
03C0
03C0
03C0
03C0
00F0
00F0
00F0
00F0
003C
003C
003C
003C
000F
000F
000F
000F
0000
0000
0000
0000
ENDCHAR
STARTCHAR bracketright
ENCODING 93
SWIDTH 800 0
DWIDTH 16 0
BBX 16 28 0 -6
BITMAP
0000
0000
0FF0
0FF0
00F0
00F0
00F0
00F0
00F0
00F0
00F0
00F0
00F0
00F0
00F0
00F0
00F0
00F0
00F0
00F0
00F0
00F0
0FF0
0FF0
0000
0000
0000
0000
ENDCHAR
STARTCHAR asciicircum
ENCODING 94
SWIDTH 800 0
DWIDTH 16 0
BBX 16 28 0 -6
BITMAP
0000
0000
03C0
03C0
0FF0
0FF0
3C3C
3C3C
0000
0000
0000
0000
0000
0000
0000
0000
0000
0000
0000
0000
0000
0000
0000
0000
0000
0000
0000
0000
ENDCHAR
STARTCHAR underscore
ENCODING 95
SWIDTH 800 0
DWIDTH 16 0
BBX 16 28 0 -6
BITMAP
0000
0000
0000
0000
0000
0000
0000
0000
0000
0000
0000
0000
0000
0000
0000
0000
0000
0000
0000
0000
0000
0000
FFFF
FFFF
0000
0000
0000
0000
ENDCHAR
STARTCHAR grave
ENCODING 96
SWIDTH 800 0
DWIDTH 16 0
BBX 16 28 0 -6
BITMAP
0000
0000
3C00
3C00
0F00
0F00
03C0
03C0
0000
0000
0000
0000
0000
0000
0000
0000
0000
0000
0000
0000
0000
0000
0000
0000
0000
0000
0000
0000
ENDCHAR
STARTCHAR a
ENCODING 97
SWIDTH 800 0
DWIDTH 16 0
BBX 16 28 0 -6
BITMAP
0000
0000
0000
0000
0000
0000
0000
0000
0FFC
0FFC
000F
000F
0FFF
0FFF
3C0F
3C0F
3C0F
3C0F
3C3F
3C3F
0FCF
0FCF
0000
0000
0000
0000
0000
0000
ENDCHAR
STARTCHAR b
ENCODING 98
SWIDTH 800 0
DWIDTH 16 0
BBX 16 28 0 -6
BITMAP
0000
0000
3C00
3C00
3C00
3C00
3C00
3C00
3CFC
3CFC
3F0F
3F0F
3C0F
3C0F
3C0F
3C0F
3C0F
3C0F
3C0F
3C0F
3FFC
3FFC
0000
0000
0000
0000
0000
0000
ENDCHAR
STARTCHAR c
ENCODING 99
SWIDTH 800 0
DWIDTH 16 0
BBX 16 28 0 -6
BITMAP
0000
0000
0000
0000
0000
0000
0000
0000
0FFC
0FFC
3C0F
3C0F
3C00
3C00
3C00
3C00
3C00
3C00
3C0F
3C0F
0FFC
0FFC
0000
0000
0000
0000
0000
0000
ENDCHAR
STARTCHAR d
ENCODING 100
SWIDTH 800 0
DWIDTH 16 0
BBX 16 28 0 -6
BITMAP
0000
0000
000F
000F
000F
000F
000F
000F
0FFF
0FFF
3C0F
3C0F
3C0F
3C0F
3C0F
3C0F
3C0F
3C0F
3C3F
3C3F
0FCF
0FCF
0000
0000
0000
0000
0000
0000
ENDCHAR
STARTCHAR e
ENCODING 101
SWIDTH 800 0
DWIDTH 16 0
BBX 16 28 0 -6
BITMAP
0000
0000
0000
0000
0000
0000
0000
0000
0FFC
0FFC
3C0F
3C0F
3C0F
3C0F
3FFF
3FFF
3C00
3C00
3C00
3C00
0FFF
0FFF
0000
0000
0000
0000
0000
0000
ENDCHAR
STARTCHAR f
ENCODING 102
SWIDTH 800 0
DWIDTH 16 0
BBX 16 28 0 -6
BITMAP
0000
0000
03FC
03FC
0F00
0F00
0F00
0F00
0F00
0F00
0FFC
0FFC
0F00
0F00
0F00
0F00
0F00
0F00
0F00
0F00
0F00
0F00
0000
0000
0000
0000
0000
0000
ENDCHAR
STARTCHAR g
ENCODING 103
SWIDTH 800 0
DWIDTH 16 0
BBX 16 28 0 -6
BITMAP
0000
0000
0000
0000
0000
0000
0000
0000
0FFF
0FFF
3C0F
3C0F
3C0F
3C0F
3C0F
3C0F
3C0F
3C0F
3C3F
3C3F
0FCF
0FCF
000F
000F
000F
000F
0FFC
0FFC
ENDCHAR
STARTCHAR h
ENCODING 104
SWIDTH 800 0
DWIDTH 16 0
BBX 16 28 0 -6
BITMAP
0000
0000
3C00
3C00
3C00
3C00
3C00
3C00
3CFC
3CFC
3F0F
3F0F
3C0F
3C0F
3C0F
3C0F
3C0F
3C0F
3C0F
3C0F
3C0F
3C0F
0000
0000
0000
0000
0000
0000
ENDCHAR
STARTCHAR i
ENCODING 105
SWIDTH 800 0
DWIDTH 16 0
BBX 16 28 0 -6
BITMAP
0000
0000
03C0
03C0
03C0
03C0
0000
0000
3FC0
3FC0
03C0
03C0
03C0
03C0
03C0
03C0
03C0
03C0
03C0
03C0
03FC
03FC
0000
0000
0000
0000
0000
0000
ENDCHAR
STARTCHAR j
ENCODING 106
SWIDTH 800 0
DWIDTH 16 0
BBX 16 28 0 -6
BITMAP
0000
0000
00F0
00F0
00F0
00F0
0000
0000
03F0
03F0
00F0
00F0
00F0
00F0
00F0
00F0
00F0
00F0
00F0
00F0
00F0
00F0
00F0
00F0
00F0
00F0
3FC0
3FC0
ENDCHAR
STARTCHAR k
ENCODING 107
SWIDTH 800 0
DWIDTH 16 0
BBX 16 28 0 -6
BITMAP
0000
0000
3C00
3C00
3C00
3C00
3C00
3C00
3C00
3C00
3C3C
3C3C
3CF0
3CF0
3FC0
3FC0
3CF0
3CF0
3C3C
3C3C
3C0F
3C0F
0000
0000
0000
0000
0000
0000
ENDCHAR
STARTCHAR l
ENCODING 108
SWIDTH 800 0
DWIDTH 16 0
BBX 16 28 0 -6
BITMAP
0000
0000
0FC0
0FC0
03C0
03C0
03C0
03C0
03C0
03C0
03C0
03C0
03C0
03C0
03C0
03C0
03C0
03C0
03C0
03C0
00FF
00FF
0000
0000
0000
0000
0000
0000
ENDCHAR
STARTCHAR m
ENCODING 109
SWIDTH 800 0
DWIDTH 16 0
BBX 16 28 0 -6
BITMAP
0000
0000
0000
0000
0000
0000
0000
0000
FFFC
FFFC
F3CF
F3CF
F3CF
F3CF
F3CF
F3CF
F3CF
F3CF
F3CF
F3CF
F3CF
F3CF
0000
0000
0000
0000
0000
0000
ENDCHAR
STARTCHAR n
ENCODING 110
SWIDTH 800 0
DWIDTH 16 0
BBX 16 28 0 -6
BITMAP
0000
0000
0000
0000
0000
0000
0000
0000
3FFC
3FFC
3C0F
3C0F
3C0F
3C0F
3C0F
3C0F
3C0F
3C0F
3C0F
3C0F
3C0F
3C0F
0000
0000
0000
0000
0000
0000
ENDCHAR
STARTCHAR o
ENCODING 111
SWIDTH 800 0
DWIDTH 16 0
BBX 16 28 0 -6
BITMAP
0000
0000
0000
0000
0000
0000
0000
0000
0FFC
0FFC
3C0F
3C0F
3C0F
3C0F
3C0F
3C0F
3C0F
3C0F
3C0F
3C0F
0FFC
0FFC
0000
0000
0000
0000
0000
0000
ENDCHAR
STARTCHAR p
ENCODING 112
SWIDTH 800 0
DWIDTH 16 0
BBX 16 28 0 -6
BITMAP
0000
0000
0000
0000
0000
0000
0000
0000
3CFC
3CFC
3F0F
3F0F
3C0F
3C0F
3C0F
3C0F
3C0F
3C0F
3C0F
3C0F
3FFC
3FFC
3C00
3C00
3C00
3C00
3C00
3C00
ENDCHAR
STARTCHAR q
ENCODING 113
SWIDTH 800 0
DWIDTH 16 0
BBX 16 28 0 -6
BITMAP
0000
0000
0000
0000
0000
0000
0000
0000
0FFF
0FFF
3C0F
3C0F
3C0F
3C0F
3C0F
3C0F
3C0F
3C0F
3C3F
3C3F
0FCF
0FCF
000F
000F
000F
000F
000F
000F
ENDCHAR
STARTCHAR r
ENCODING 114
SWIDTH 800 0
DWIDTH 16 0
BBX 16 28 0 -6
BITMAP
0000
0000
0000
0000
0000
0000
0000
0000
3CFC
3CFC
3F0F
3F0F
3C00
3C00
3C00
3C00
3C00
3C00
3C00
3C00
3C00
3C00
0000
0000
0000
0000
0000
0000
ENDCHAR
STARTCHAR s
ENCODING 115
SWIDTH 800 0
DWIDTH 16 0
BBX 16 28 0 -6
BITMAP
0000
0000
0000
0000
0000
0000
0000
0000
0FFC
0FFC
3C00
3C00
3C00
3C00
0FFC
0FFC
000F
000F
000F
000F
3FFC
3FFC
0000
0000
0000
0000
0000
0000
ENDCHAR
STARTCHAR t
ENCODING 116
SWIDTH 800 0
DWIDTH 16 0
BBX 16 28 0 -6
BITMAP
0000
0000
03C0
03C0
03C0
03C0
03C0
03C0
0FFC
0FFC
03C0
03C0
03C0
03C0
03C0
03C0
03C0
03C0
03C0
03C0
00FC
00FC
0000
0000
0000
0000
0000
0000
ENDCHAR
STARTCHAR u
ENCODING 117
SWIDTH 800 0
DWIDTH 16 0
BBX 16 28 0 -6
BITMAP
0000
0000
0000
0000
0000
0000
0000
0000
3C0F
3C0F
3C0F
3C0F
3C0F
3C0F
3C0F
3C0F
3C0F
3C0F
3C3F
3C3F
0FCF
0FCF
0000
0000
0000
0000
0000
0000
ENDCHAR
STARTCHAR v
ENCODING 118
SWIDTH 800 0
DWIDTH 16 0
BBX 16 28 0 -6
BITMAP
0000
0000
0000
0000
0000
0000
0000
0000
3C0F
3C0F
3C0F
3C0F
3C0F
3C0F
0F3C
0F3C
0F3C
0F3C
03F0
03F0
03F0
03F0
0000
0000
0000
0000
0000
0000
ENDCHAR
STARTCHAR w
ENCODING 119
SWIDTH 800 0
DWIDTH 16 0
BBX 16 28 0 -6
BITMAP
0000
0000
0000
0000
0000
0000
0000
0000
F00F
F00F
F00F
F00F
F3CF
F3CF
F3CF
F3CF
FFFF
FFFF
3C3C
3C3C
3C3C
3C3C
0000
0000
0000
0000
0000
0000
ENDCHAR
STARTCHAR x
ENCODING 120
SWIDTH 800 0
DWIDTH 16 0
BBX 16 28 0 -6
BITMAP
0000
0000
0000
0000
0000
0000
0000
0000
3C0F
3C0F
3C0F
3C0F
0F3C
0F3C
03F0
03F0
0F3C
0F3C
3C0F
3C0F
3C0F
3C0F
0000
0000
0000
0000
0000
0000
ENDCHAR
STARTCHAR y
ENCODING 121
SWIDTH 800 0
DWIDTH 16 0
BBX 16 28 0 -6
BITMAP
0000
0000
0000
0000
0000
0000
0000
0000
3C0F
3C0F
3C0F
3C0F
3C0F
3C0F
3C0F
3C0F
3C0F
3C0F
3C3F
3C3F
0FCF
0FCF
000F
000F
000F
000F
0FFC
0FFC
ENDCHAR
STARTCHAR z
ENCODING 122
SWIDTH 800 0
DWIDTH 16 0
BBX 16 28 0 -6
BITMAP
0000
0000
0000
0000
0000
0000
0000
0000
3FFF
3FFF
003C
003C
00F0
00F0
03C0
03C0
0F00
0F00
3C00
3C00
3FFF
3FFF
0000
0000
0000
0000
0000
0000
ENDCHAR
STARTCHAR braceleft
ENCODING 123
SWIDTH 800 0
DWIDTH 16 0
BBX 16 28 0 -6
BITMAP
0000
0000
00FF
00FF
03C0
03C0
03C0
03C0
03C0
03C0
03C0
03C0
03C0
03C0
FF00
FF00
03C0
03C0
03C0
03C0
03C0
03C0
03C0
03C0
00FF
00FF
0000
0000
ENDCHAR
STARTCHAR bar
ENCODING 124
SWIDTH 800 0
DWIDTH 16 0
BBX 16 28 0 -6
BITMAP
0000
0000
03C0
03C0
03C0
03C0
03C0
03C0
03C0
03C0
03C0
03C0
03C0
03C0
03C0
03C0
03C0
03C0
03C0
03C0
03C0
03C0
03C0
03C0
03C0
03C0
0000
0000
ENDCHAR
STARTCHAR braceright
ENCODING 125
SWIDTH 800 0
DWIDTH 16 0
BBX 16 28 0 -6
BITMAP
0000
0000
3FC0
3FC0
00F0
00F0
00F0
00F0
00F0
00F0
00F0
00F0
00F0
00F0
003F
003F
00F0
00F0
00F0
00F0
00F0
00F0
00F0
00F0
3FC0
3FC0
0000
0000
ENDCHAR
STARTCHAR asciitilde
ENCODING 126
SWIDTH 800 0
DWIDTH 16 0
BBX 16 28 0 -6
BITMAP
0000
0000
0000
0000
0000
0000
0000
0000
0000
0000
3F0F
3F0F
F3CF
F3CF
F0FC
F0FC
0000
0000
0000
0000
0000
0000
0000
0000
0000
0000
0000
0000
ENDCHAR
STARTCHAR nbspace
ENCODING 160
SWIDTH 800 0
DWIDTH 16 0
BBX 16 28 0 -6
BITMAP
0000
0000
0000
0000
0000
0000
0000
0000
0000
0000
0000
0000
0000
0000
0000
0000
0000
0000
0000
0000
0000
0000
0000
0000
0000
0000
0000
0000
ENDCHAR
STARTCHAR exclamdown
ENCODING 161
SWIDTH 800 0
DWIDTH 16 0
BBX 16 28 0 -6
BITMAP
0000
0000
03C0
03C0
03C0
03C0
0000
0000
03C0
03C0
03C0
03C0
03C0
03C0
03C0
03C0
03C0
03C0
03C0
03C0
03C0
03C0
0000
0000
0000
0000
0000
0000
ENDCHAR
STARTCHAR cent
ENCODING 162
SWIDTH 800 0
DWIDTH 16 0
BBX 16 28 0 -6
BITMAP
0000
0000
0000
0000
03C0
03C0
03C0
03C0
3FFC
3FFC
F3CF
F3CF
F3C0
F3C0
F3C0
F3C0
F3C0
F3C0
F3CF
F3CF
3FFC
3FFC
03C0
03C0
03C0
03C0
0000
0000
ENDCHAR
STARTCHAR sterling
ENCODING 163
SWIDTH 800 0
DWIDTH 16 0
BBX 16 28 0 -6
BITMAP
0000
0000
03F0
03F0
0F3C
0F3C
0F00
0F00
0F00
0F00
3FF0
3FF0
0F00
0F00
0F00
0F00
0F00
0F00
0F0F
0F0F
3FFC
3FFC
0000
0000
0000
0000
0000
0000
ENDCHAR
STARTCHAR currency
ENCODING 164
SWIDTH 800 0
DWIDTH 16 0
BBX 16 28 0 -6
BITMAP
0000
0000
0000
0000
0000
0000
0000
0000
F00F
F00F
3FFC
3FFC
3C3C
3C3C
3C3C
3C3C
3C3C
3C3C
3FFC
3FFC
F00F
F00F
0000
0000
0000
0000
0000
0000
ENDCHAR
STARTCHAR yen
ENCODING 165
SWIDTH 800 0
DWIDTH 16 0
BBX 16 28 0 -6
BITMAP
0000
0000
F00F
F00F
F00F
F00F
3C3C
3C3C
0FF0
0FF0
03C0
03C0
3FFC
3FFC
03C0
03C0
3FFC
3FFC
03C0
03C0
03C0
03C0
0000
0000
0000
0000
0000
0000
ENDCHAR
STARTCHAR brokenbar
ENCODING 166
SWIDTH 800 0
DWIDTH 16 0
BBX 16 28 0 -6
BITMAP
0000
0000
03C0
03C0
03C0
03C0
03C0
03C0
03C0
03C0
03C0
03C0
0000
0000
0000
0000
03C0
03C0
03C0
03C0
03C0
03C0
03C0
03C0
03C0
03C0
0000
0000
ENDCHAR
STARTCHAR section
ENCODING 167
SWIDTH 800 0
DWIDTH 16 0
BBX 16 28 0 -6
BITMAP
0000
0000
0FF0
0FF0
3C3C
3C3C
3C00
3C00
0FC0
0FC0
3CF0
3CF0
3C3C
3C3C
3C3C
3C3C
0F3C
0F3C
03F0
03F0
003C
003C
3C3C
3C3C
0FF0
0FF0
0000
0000
ENDCHAR
STARTCHAR dieresis
ENCODING 168
SWIDTH 800 0
DWIDTH 16 0
BBX 16 28 0 -6
BITMAP
0000
0000
0F3C
0F3C
0F3C
0F3C
0000
0000
0000
0000
0000
0000
0000
0000
0000
0000
0000
0000
0000
0000
0000
0000
0000
0000
0000
0000
0000
0000
ENDCHAR
STARTCHAR copyright
ENCODING 169
SWIDTH 800 0
DWIDTH 16 0
BBX 16 28 0 -6
BITMAP
0000
0000
0000
0000
0FFC
0FFC
3C0F
3C0F
F3F3
F3F3
FF3F
FF3F
FF03
FF03
FF3F
FF3F
F3F3
F3F3
3C0F
3C0F
0FFC
0FFC
0000
0000
0000
0000
0000
0000
ENDCHAR
STARTCHAR ordfeminine
ENCODING 170
SWIDTH 800 0
DWIDTH 16 0
BBX 16 28 0 -6
BITMAP
0000
0000
0FF0
0FF0
003C
003C
0FFC
0FFC
3C3C
3C3C
0FFC
0FFC
0000
0000
3FFC
3FFC
0000
0000
0000
0000
0000
0000
0000
0000
0000
0000
0000
0000
ENDCHAR
STARTCHAR guillemotleft
ENCODING 171
SWIDTH 800 0
DWIDTH 16 0
BBX 16 28 0 -6
BITMAP
0000
0000
0000
0000
0000
0000
0000
0000
03CF
03CF
0F3C
0F3C
3CF0
3CF0
F3C0
F3C0
3CF0
3CF0
0F3C
0F3C
03CF
03CF
0000
0000
0000
0000
0000
0000
ENDCHAR
STARTCHAR logicalnot
ENCODING 172
SWIDTH 800 0
DWIDTH 16 0
BBX 16 28 0 -6
BITMAP
0000
0000
0000
0000
0000
0000
0000
0000
0000
0000
3FFF
3FFF
000F
000F
000F
000F
000F
000F
0000
0000
0000
0000
0000
0000
0000
0000
0000
0000
ENDCHAR
STARTCHAR softhyphen
ENCODING 173
SWIDTH 800 0
DWIDTH 16 0
BBX 16 28 0 -6
BITMAP
0000
0000
0000
0000
0000
0000
0000
0000
0000
0000
0000
0000
0000
0000
0FFC
0FFC
0000
0000
0000
0000
0000
0000
0000
0000
0000
0000
0000
0000
ENDCHAR
STARTCHAR registered
ENCODING 174
SWIDTH 800 0
DWIDTH 16 0
BBX 16 28 0 -6
BITMAP
0000
0000
0000
0000
0FFC
0FFC
3C0F
3C0F
FFF3
FFF3
FF3F
FF3F
FFF3
FFF3
FFF3
FFF3
FF3F
FF3F
3C0F
3C0F
0FFC
0FFC
0000
0000
0000
0000
0000
0000
ENDCHAR
STARTCHAR macron
ENCODING 175
SWIDTH 800 0
DWIDTH 16 0
BBX 16 28 0 -6
BITMAP
0000
0000
3FFF
3FFF
0000
0000
0000
0000
0000
0000
0000
0000
0000
0000
0000
0000
0000
0000
0000
0000
0000
0000
0000
0000
0000
0000
0000
0000
ENDCHAR
STARTCHAR degree
ENCODING 176
SWIDTH 800 0
DWIDTH 16 0
BBX 16 28 0 -6
BITMAP
0000
0000
03F0
03F0
0F3C
0F3C
0F3C
0F3C
03F0
03F0
0000
0000
0000
0000
0000
0000
0000
0000
0000
0000
0000
0000
0000
0000
0000
0000
0000
0000
ENDCHAR
STARTCHAR plusminus
ENCODING 177
SWIDTH 800 0
DWIDTH 16 0
BBX 16 28 0 -6
BITMAP
0000
0000
0000
0000
0000
0000
0000
0000
03C0
03C0
03C0
03C0
3FFC
3FFC
03C0
03C0
03C0
03C0
0000
0000
3FFC
3FFC
0000
0000
0000
0000
0000
0000
ENDCHAR
STARTCHAR twosuperior
ENCODING 178
SWIDTH 800 0
DWIDTH 16 0
BBX 16 28 0 -6
BITMAP
0000
0000
03F0
03F0
0F3C
0F3C
00F0
00F0
03C0
03C0
0FFC
0FFC
0000
0000
0000
0000
0000
0000
0000
0000
0000
0000
0000
0000
0000
0000
0000
0000
ENDCHAR
STARTCHAR threesuperior
ENCODING 179
SWIDTH 800 0
DWIDTH 16 0
BBX 16 28 0 -6
BITMAP
0000
0000
0FF0
0FF0
003C
003C
03F0
03F0
003C
003C
0FF0
0FF0
0000
0000
0000
0000
0000
0000
0000
0000
0000
0000
0000
0000
0000
0000
0000
0000
ENDCHAR
STARTCHAR acute
ENCODING 180
SWIDTH 800 0
DWIDTH 16 0
BBX 16 28 0 -6
BITMAP
00F0
00F0
03C0
03C0
0000
0000
0000
0000
0000
0000
0000
0000
0000
0000
0000
0000
0000
0000
0000
0000
0000
0000
0000
0000
0000
0000
0000
0000
ENDCHAR
STARTCHAR mu
ENCODING 181
SWIDTH 800 0
DWIDTH 16 0
BBX 16 28 0 -6
BITMAP
0000
0000
0000
0000
0000
0000
0000
0000
3C0F
3C0F
3C0F
3C0F
3C0F
3C0F
3C0F
3C0F
3C0F
3C0F
3C3F
3C3F
3FCF
3FCF
3C00
3C00
3C00
3C00
3C00
3C00
ENDCHAR
STARTCHAR paragraph
ENCODING 182
SWIDTH 800 0
DWIDTH 16 0
BBX 16 28 0 -6
BITMAP
0000
0000
3FFF
3FFF
FFCF
FFCF
FFCF
FFCF
FFCF
FFCF
FFCF
FFCF
3FCF
3FCF
03CF
03CF
03CF
03CF
03CF
03CF
03CF
03CF
0000
0000
0000
0000
0000
0000
ENDCHAR
STARTCHAR periodcentered
ENCODING 183
SWIDTH 800 0
DWIDTH 16 0
BBX 16 28 0 -6
BITMAP
0000
0000
0000
0000
0000
0000
0000
0000
0000
0000
0000
0000
0FC0
0FC0
0FC0
0FC0
0000
0000
0000
0000
0000
0000
0000
0000
0000
0000
0000
0000
ENDCHAR
STARTCHAR cedilla
ENCODING 184
SWIDTH 800 0
DWIDTH 16 0
BBX 16 28 0 -6
BITMAP
0000
0000
0000
0000
0000
0000
0000
0000
0000
0000
0000
0000
0000
0000
0000
0000
0000
0000
0000
0000
0000
0000
03C0
03C0
03C0
03C0
0F00
0F00
ENDCHAR
STARTCHAR onesuperior
ENCODING 185
SWIDTH 800 0
DWIDTH 16 0
BBX 16 28 0 -6
BITMAP
0000
0000
03C0
03C0
0FC0
0FC0
03C0
03C0
03C0
03C0
0FF0
0FF0
0000
0000
0000
0000
0000
0000
0000
0000
0000
0000
0000
0000
0000
0000
0000
0000
ENDCHAR
STARTCHAR ordmasculine
ENCODING 186
SWIDTH 800 0
DWIDTH 16 0
BBX 16 28 0 -6
BITMAP
0000
0000
0FF0
0FF0
3C3C
3C3C
3C3C
3C3C
3C3C
3C3C
0FF0
0FF0
0000
0000
3FFC
3FFC
0000
0000
0000
0000
0000
0000
0000
0000
0000
0000
0000
0000
ENDCHAR
STARTCHAR guillemotright
ENCODING 187
SWIDTH 800 0
DWIDTH 16 0
BBX 16 28 0 -6
BITMAP
0000
0000
0000
0000
0000
0000
0000
0000
F3C0
F3C0
3CF0
3CF0
0F3C
0F3C
03CF
03CF
0F3C
0F3C
3CF0
3CF0
F3C0
F3C0
0000
0000
0000
0000
0000
0000
ENDCHAR
STARTCHAR onequarter
ENCODING 188
SWIDTH 800 0
DWIDTH 16 0
BBX 16 28 0 -6
BITMAP
0F00
0F00
3F00
3F00
0F00
0F00
0F0F
0F0F
0F3C
0F3C
00F0
00F0
03C0
03C0
0F0F
0F0F
3C3F
3C3F
F0FF
F0FF
03FF
03FF
000F
000F
000F
000F
0000
0000
ENDCHAR
STARTCHAR onehalf
ENCODING 189
SWIDTH 800 0
DWIDTH 16 0
BBX 16 28 0 -6
BITMAP
0F00
0F00
3F00
3F00
0F00
0F00
0F0F
0F0F
0F3C
0F3C
00F0
00F0
03C0
03C0
0F00
0F00
3CFC
3CFC
F3CF
F3CF
003C
003C
00F0
00F0
03FF
03FF
0000
0000
ENDCHAR
STARTCHAR threequarters
ENCODING 190
SWIDTH 800 0
DWIDTH 16 0
BBX 16 28 0 -6
BITMAP
FF00
FF00
03C0
03C0
3F00
3F00
03CF
03CF
FF3C
FF3C
00F0
00F0
03C0
03C0
0F0F
0F0F
3C3F
3C3F
F0FF
F0FF
03FF
03FF
000F
000F
000F
000F
0000
0000
ENDCHAR
STARTCHAR question
ENCODING 191
SWIDTH 800 0
DWIDTH 16 0
BBX 16 28 0 -6
BITMAP
0000
0000
00F0
00F0
00F0
00F0
0000
0000
00F0
00F0
03C0
03C0
0F00
0F00
3C00
3C00
3C00
3C00
3C0F
3C0F
0FFC
0FFC
0000
0000
0000
0000
0000
0000
ENDCHAR
STARTCHAR Agrave
ENCODING 192
SWIDTH 800 0
DWIDTH 16 0
BBX 16 28 0 -6
BITMAP
03C0
03C0
00F0
00F0
0FFC
0FFC
3C0F
3C0F
3C0F
3C0F
3C0F
3C0F
3FFF
3FFF
3C0F
3C0F
3C0F
3C0F
3C0F
3C0F
3C0F
3C0F
0000
0000
0000
0000
0000
0000
ENDCHAR
STARTCHAR Aacute
ENCODING 193
SWIDTH 800 0
DWIDTH 16 0
BBX 16 28 0 -6
BITMAP
00F0
00F0
03C0
03C0
0FFC
0FFC
3C0F
3C0F
3C0F
3C0F
3C0F
3C0F
3FFF
3FFF
3C0F
3C0F
3C0F
3C0F
3C0F
3C0F
3C0F
3C0F
0000
0000
0000
0000
0000
0000
ENDCHAR
STARTCHAR Acircumflex
ENCODING 194
SWIDTH 800 0
DWIDTH 16 0
BBX 16 28 0 -6
BITMAP
03F0
03F0
0F3C
0F3C
0000
0000
0FFC
0FFC
3C0F
3C0F
3C0F
3C0F
3C0F
3C0F
3FFF
3FFF
3C0F
3C0F
3C0F
3C0F
3C0F
3C0F
0000
0000
0000
0000
0000
0000
ENDCHAR
STARTCHAR Atilde
ENCODING 195
SWIDTH 800 0
DWIDTH 16 0
BBX 16 28 0 -6
BITMAP
0FCF
0FCF
3CFC
3CFC
0000
0000
0FFC
0FFC
3C0F
3C0F
3C0F
3C0F
3C0F
3C0F
3FFF
3FFF
3C0F
3C0F
3C0F
3C0F
3C0F
3C0F
0000
0000
0000
0000
0000
0000
ENDCHAR
STARTCHAR Adieresis
ENCODING 196
SWIDTH 800 0
DWIDTH 16 0
BBX 16 28 0 -6
BITMAP
0F3C
0F3C
0F3C
0F3C
0000
0000
0FFC
0FFC
3C0F
3C0F
3C0F
3C0F
3C0F
3C0F
3FFF
3FFF
3C0F
3C0F
3C0F
3C0F
3C0F
3C0F
0000
0000
0000
0000
0000
0000
ENDCHAR
STARTCHAR Aring
ENCODING 197
SWIDTH 800 0
DWIDTH 16 0
BBX 16 28 0 -6
BITMAP
03F0
03F0
0F3C
0F3C
03F0
03F0
0FFC
0FFC
3C0F
3C0F
3C0F
3C0F
3C0F
3C0F
3FFF
3FFF
3C0F
3C0F
3C0F
3C0F
3C0F
3C0F
0000
0000
0000
0000
0000
0000
ENDCHAR
STARTCHAR AE
ENCODING 198
SWIDTH 800 0
DWIDTH 16 0
BBX 16 28 0 -6
BITMAP
0000
0000
0000
0000
3FFF
3FFF
F3C0
F3C0
F3C0
F3C0
F3C0
F3C0
FFFC
FFFC
F3C0
F3C0
F3C0
F3C0
F3C0
F3C0
F3FF
F3FF
0000
0000
0000
0000
0000
0000
ENDCHAR
STARTCHAR Ccedilla
ENCODING 199
SWIDTH 800 0
DWIDTH 16 0
BBX 16 28 0 -6
BITMAP
0000
0000
0000
0000
0FFC
0FFC
3C0F
3C0F
3C00
3C00
3C00
3C00
3C00
3C00
3C00
3C00
3C00
3C00
3C0F
3C0F
0FFC
0FFC
03C0
03C0
0F00
0F00
0000
0000
ENDCHAR
STARTCHAR Egrave
ENCODING 200
SWIDTH 800 0
DWIDTH 16 0
BBX 16 28 0 -6
BITMAP
03C0
03C0
00F0
00F0
3FFF
3FFF
3C00
3C00
3C00
3C00
3C00
3C00
3FF0
3FF0
3C00
3C00
3C00
3C00
3C00
3C00
3FFF
3FFF
0000
0000
0000
0000
0000
0000
ENDCHAR
STARTCHAR Eacute
ENCODING 201
SWIDTH 800 0
DWIDTH 16 0
BBX 16 28 0 -6
BITMAP
00F0
00F0
03C0
03C0
3FFF
3FFF
3C00
3C00
3C00
3C00
3C00
3C00
3FF0
3FF0
3C00
3C00
3C00
3C00
3C00
3C00
3FFF
3FFF
0000
0000
0000
0000
0000
0000
ENDCHAR
STARTCHAR Ecircumflex
ENCODING 202
SWIDTH 800 0
DWIDTH 16 0
BBX 16 28 0 -6
BITMAP
03F0
03F0
0F3C
0F3C
0000
0000
3FFF
3FFF
3C00
3C00
3C00
3C00
3FF0
3FF0
3C00
3C00
3C00
3C00
3C00
3C00
3FFF
3FFF
0000
0000
0000
0000
0000
0000
ENDCHAR
STARTCHAR Edieresis
ENCODING 203
SWIDTH 800 0
DWIDTH 16 0
BBX 16 28 0 -6
BITMAP
0F3C
0F3C
0F3C
0F3C
0000
0000
3FFF
3FFF
3C00
3C00
3C00
3C00
3FF0
3FF0
3C00
3C00
3C00
3C00
3C00
3C00
3FFF
3FFF
0000
0000
0000
0000
0000
0000
ENDCHAR
STARTCHAR Igrave
ENCODING 204
SWIDTH 800 0
DWIDTH 16 0
BBX 16 28 0 -6
BITMAP
0F00
0F00
03C0
03C0
0000
0000
0FF0
0FF0
03C0
03C0
03C0
03C0
03C0
03C0
03C0
03C0
03C0
03C0
03C0
03C0
0FF0
0FF0
0000
0000
0000
0000
0000
0000
ENDCHAR
STARTCHAR Iacute
ENCODING 205
SWIDTH 800 0
DWIDTH 16 0
BBX 16 28 0 -6
BITMAP
00F0
00F0
03C0
03C0
0000
0000
0FF0
0FF0
03C0
03C0
03C0
03C0
03C0
03C0
03C0
03C0
03C0
03C0
03C0
03C0
0FF0
0FF0
0000
0000
0000
0000
0000
0000
ENDCHAR
STARTCHAR Icircumflex
ENCODING 206
SWIDTH 800 0
DWIDTH 16 0
BBX 16 28 0 -6
BITMAP
03F0
03F0
0F3C
0F3C
0000
0000
0FF0
0FF0
03C0
03C0
03C0
03C0
03C0
03C0
03C0
03C0
03C0
03C0
03C0
03C0
0FF0
0FF0
0000
0000
0000
0000
0000
0000
ENDCHAR
STARTCHAR Idieresis
ENCODING 207
SWIDTH 800 0
DWIDTH 16 0
BBX 16 28 0 -6
BITMAP
3C3C
3C3C
3C3C
3C3C
0000
0000
0FF0
0FF0
03C0
03C0
03C0
03C0
03C0
03C0
03C0
03C0
03C0
03C0
03C0
03C0
0FF0
0FF0
0000
0000
0000
0000
0000
0000
ENDCHAR
STARTCHAR Eth
ENCODING 208
SWIDTH 800 0
DWIDTH 16 0
BBX 16 28 0 -6
BITMAP
0000
0000
0000
0000
3FF0
3FF0
3C3C
3C3C
3C0F
3C0F
3C0F
3C0F
FFCF
FFCF
3C0F
3C0F
3C0F
3C0F
3C3C
3C3C
3FF0
3FF0
0000
0000
0000
0000
0000
0000
ENDCHAR
STARTCHAR Ntilde
ENCODING 209
SWIDTH 800 0
DWIDTH 16 0
BBX 16 28 0 -6
BITMAP
0FCF
0FCF
3CFC
3CFC
0000
0000
3F0F
3F0F
3F0F
3F0F
3FCF
3FCF
3FCF
3FCF
3CFF
3CFF
3CFF
3CFF
3C3F
3C3F
3C3F
3C3F
0000
0000
0000
0000
0000
0000
ENDCHAR
STARTCHAR Ograve
ENCODING 210
SWIDTH 800 0
DWIDTH 16 0
BBX 16 28 0 -6
BITMAP
03C0
03C0
00F0
00F0
0FFC
0FFC
3C0F
3C0F
3C0F
3C0F
3C0F
3C0F
3C0F
3C0F
3C0F
3C0F
3C0F
3C0F
3C0F
3C0F
0FFC
0FFC
0000
0000
0000
0000
0000
0000
ENDCHAR
STARTCHAR Oacute
ENCODING 211
SWIDTH 800 0
DWIDTH 16 0
BBX 16 28 0 -6
BITMAP
00F0
00F0
03C0
03C0
0FFC
0FFC
3C0F
3C0F
3C0F
3C0F
3C0F
3C0F
3C0F
3C0F
3C0F
3C0F
3C0F
3C0F
3C0F
3C0F
0FFC
0FFC
0000
0000
0000
0000
0000
0000
ENDCHAR
STARTCHAR Ocircumflex
ENCODING 212
SWIDTH 800 0
DWIDTH 16 0
BBX 16 28 0 -6
BITMAP
03F0
03F0
0F3C
0F3C
0000
0000
0FFC
0FFC
3C0F
3C0F
3C0F
3C0F
3C0F
3C0F
3C0F
3C0F
3C0F
3C0F
3C0F
3C0F
0FFC
0FFC
0000
0000
0000
0000
0000
0000
ENDCHAR
STARTCHAR Otilde
ENCODING 213
SWIDTH 800 0
DWIDTH 16 0
BBX 16 28 0 -6
BITMAP
0FCF
0FCF
3CFC
3CFC
0000
0000
0FFC
0FFC
3C0F
3C0F
3C0F
3C0F
3C0F
3C0F
3C0F
3C0F
3C0F
3C0F
3C0F
3C0F
0FFC
0FFC
0000
0000
0000
0000
0000
0000
ENDCHAR
STARTCHAR Odieresis
ENCODING 214
SWIDTH 800 0
DWIDTH 16 0
BBX 16 28 0 -6
BITMAP
0F3C
0F3C
0F3C
0F3C
0000
0000
0FFC
0FFC
3C0F
3C0F
3C0F
3C0F
3C0F
3C0F
3C0F
3C0F
3C0F
3C0F
3C0F
3C0F
0FFC
0FFC
0000
0000
0000
0000
0000
0000
ENDCHAR
STARTCHAR multiply
ENCODING 215
SWIDTH 800 0
DWIDTH 16 0
BBX 16 28 0 -6
BITMAP
0000
0000
0000
0000
0000
0000
0000
0000
0000
0000
3C0F
3C0F
0F3C
0F3C
03F0
03F0
0F3C
0F3C
3C0F
3C0F
0000
0000
0000
0000
0000
0000
0000
0000
ENDCHAR
STARTCHAR Oslash
ENCODING 216
SWIDTH 800 0
DWIDTH 16 0
BBX 16 28 0 -6
BITMAP
000F
000F
0FFF
0FFF
3C3C
3C3C
3C3F
3C3F
3CFF
3CFF
3CFF
3CFF
3FCF
3FCF
3FCF
3FCF
3F0F
3F0F
0F0F
0F0F
3FFC
3FFC
3C00
3C00
0000
0000
0000
0000
ENDCHAR
STARTCHAR Ugrave
ENCODING 217
SWIDTH 800 0
DWIDTH 16 0
BBX 16 28 0 -6
BITMAP
03C0
03C0
00F0
00F0
3C0F
3C0F
3C0F
3C0F
3C0F
3C0F
3C0F
3C0F
3C0F
3C0F
3C0F
3C0F
3C0F
3C0F
3C0F
3C0F
0FFC
0FFC
0000
0000
0000
0000
0000
0000
ENDCHAR
STARTCHAR Uacute
ENCODING 218
SWIDTH 800 0
DWIDTH 16 0
BBX 16 28 0 -6
BITMAP
00F0
00F0
03C0
03C0
3C0F
3C0F
3C0F
3C0F
3C0F
3C0F
3C0F
3C0F
3C0F
3C0F
3C0F
3C0F
3C0F
3C0F
3C0F
3C0F
0FFC
0FFC
0000
0000
0000
0000
0000
0000
ENDCHAR
STARTCHAR Ucircumflex
ENCODING 219
SWIDTH 800 0
DWIDTH 16 0
BBX 16 28 0 -6
BITMAP
03F0
03F0
0F3C
0F3C
0000
0000
3C0F
3C0F
3C0F
3C0F
3C0F
3C0F
3C0F
3C0F
3C0F
3C0F
3C0F
3C0F
3C0F
3C0F
0FFC
0FFC
0000
0000
0000
0000
0000
0000
ENDCHAR
STARTCHAR Udieresis
ENCODING 220
SWIDTH 800 0
DWIDTH 16 0
BBX 16 28 0 -6
BITMAP
0F3C
0F3C
0F3C
0F3C
0000
0000
3C0F
3C0F
3C0F
3C0F
3C0F
3C0F
3C0F
3C0F
3C0F
3C0F
3C0F
3C0F
3C0F
3C0F
0FFC
0FFC
0000
0000
0000
0000
0000
0000
ENDCHAR
STARTCHAR Yacute
ENCODING 221
SWIDTH 800 0
DWIDTH 16 0
BBX 16 28 0 -6
BITMAP
00F0
00F0
03C0
03C0
F00F
F00F
F00F
F00F
3C3C
3C3C
3C3C
3C3C
0FF0
0FF0
03C0
03C0
03C0
03C0
03C0
03C0
03C0
03C0
0000
0000
0000
0000
0000
0000
ENDCHAR
STARTCHAR Thorn
ENCODING 222
SWIDTH 800 0
DWIDTH 16 0
BBX 16 28 0 -6
BITMAP
0000
0000
3C00
3C00
3C00
3C00
3FFC
3FFC
3C0F
3C0F
3C0F
3C0F
3C0F
3C0F
3C0F
3C0F
3FFC
3FFC
3C00
3C00
3C00
3C00
0000
0000
0000
0000
0000
0000
ENDCHAR
STARTCHAR germandbls
ENCODING 223
SWIDTH 800 0
DWIDTH 16 0
BBX 16 28 0 -6
BITMAP
0000
0000
0FF0
0FF0
3C3C
3C3C
3C3C
3C3C
3CF0
3CF0
3FFC
3FFC
3C0F
3C0F
3C0F
3C0F
3C0F
3C0F
3F0F
3F0F
3FFC
3FFC
0000
0000
0000
0000
0000
0000
ENDCHAR
STARTCHAR agrave
ENCODING 224
SWIDTH 800 0
DWIDTH 16 0
BBX 16 28 0 -6
BITMAP
0000
0000
03C0
03C0
00F0
00F0
0000
0000
0FFC
0FFC
000F
000F
0FFF
0FFF
3C0F
3C0F
3C0F
3C0F
3C3F
3C3F
0FCF
0FCF
0000
0000
0000
0000
0000
0000
ENDCHAR
STARTCHAR aacute
ENCODING 225
SWIDTH 800 0
DWIDTH 16 0
BBX 16 28 0 -6
BITMAP
0000
0000
00F0
00F0
03C0
03C0
0000
0000
0FFC
0FFC
000F
000F
0FFF
0FFF
3C0F
3C0F
3C0F
3C0F
3C3F
3C3F
0FCF
0FCF
0000
0000
0000
0000
0000
0000
ENDCHAR
STARTCHAR acircumflex
ENCODING 226
SWIDTH 800 0
DWIDTH 16 0
BBX 16 28 0 -6
BITMAP
0000
0000
03F0
03F0
0F3C
0F3C
0000
0000
0FFC
0FFC
000F
000F
0FFF
0FFF
3C0F
3C0F
3C0F
3C0F
3C3F
3C3F
0FCF
0FCF
0000
0000
0000
0000
0000
0000
ENDCHAR
STARTCHAR atilde
ENCODING 227
SWIDTH 800 0
DWIDTH 16 0
BBX 16 28 0 -6
BITMAP
0000
0000
0FCF
0FCF
3CFC
3CFC
0000
0000
0FFC
0FFC
000F
000F
0FFF
0FFF
3C0F
3C0F
3C0F
3C0F
3C3F
3C3F
0FCF
0FCF
0000
0000
0000
0000
0000
0000
ENDCHAR
STARTCHAR adieresis
ENCODING 228
SWIDTH 800 0
DWIDTH 16 0
BBX 16 28 0 -6
BITMAP
0000
0000
0F3C
0F3C
0F3C
0F3C
0000
0000
0FFC
0FFC
000F
000F
0FFF
0FFF
3C0F
3C0F
3C0F
3C0F
3C3F
3C3F
0FCF
0FCF
0000
0000
0000
0000
0000
0000
ENDCHAR
STARTCHAR aring
ENCODING 229
SWIDTH 800 0
DWIDTH 16 0
BBX 16 28 0 -6
BITMAP
0000
0000
03F0
03F0
0F3C
0F3C
03F0
03F0
0FFC
0FFC
000F
000F
0FFF
0FFF
3C0F
3C0F
3C0F
3C0F
3C3F
3C3F
0FCF
0FCF
0000
0000
0000
0000
0000
0000
ENDCHAR
STARTCHAR ae
ENCODING 230
SWIDTH 800 0
DWIDTH 16 0
BBX 16 28 0 -6
BITMAP
0000
0000
0000
0000
0000
0000
0000
0000
3FFC
3FFC
03CF
03CF
3FCF
3FCF
F3FF
F3FF
F3C0
F3C0
F3C0
F3C0
3FFC
3FFC
0000
0000
0000
0000
0000
0000
ENDCHAR
STARTCHAR ccedilla
ENCODING 231
SWIDTH 800 0
DWIDTH 16 0
BBX 16 28 0 -6
BITMAP
0000
0000
0000
0000
0000
0000
0000
0000
0FFC
0FFC
3C0F
3C0F
3C00
3C00
3C00
3C00
3C00
3C00
3C0F
3C0F
0FFC
0FFC
03C0
03C0
0F00
0F00
0000
0000
ENDCHAR
STARTCHAR egrave
ENCODING 232
SWIDTH 800 0
DWIDTH 16 0
BBX 16 28 0 -6
BITMAP
0000
0000
03C0
03C0
00F0
00F0
0000
0000
0FFC
0FFC
3C0F
3C0F
3C0F
3C0F
3FFF
3FFF
3C00
3C00
3C00
3C00
0FFF
0FFF
0000
0000
0000
0000
0000
0000
ENDCHAR
STARTCHAR eacute
ENCODING 233
SWIDTH 800 0
DWIDTH 16 0
BBX 16 28 0 -6
BITMAP
0000
0000
00F0
00F0
03C0
03C0
0000
0000
0FFC
0FFC
3C0F
3C0F
3C0F
3C0F
3FFF
3FFF
3C00
3C00
3C00
3C00
0FFF
0FFF
0000
0000
0000
0000
0000
0000
ENDCHAR
STARTCHAR ecircumflex
ENCODING 234
SWIDTH 800 0
DWIDTH 16 0
BBX 16 28 0 -6
BITMAP
0000
0000
03F0
03F0
0F3C
0F3C
0000
0000
0FFC
0FFC
3C0F
3C0F
3C0F
3C0F
3FFF
3FFF
3C00
3C00
3C00
3C00
0FFF
0FFF
0000
0000
0000
0000
0000
0000
ENDCHAR
STARTCHAR edieresis
ENCODING 235
SWIDTH 800 0
DWIDTH 16 0
BBX 16 28 0 -6
BITMAP
0000
0000
0F3C
0F3C
0F3C
0F3C
0000
0000
0FFC
0FFC
3C0F
3C0F
3C0F
3C0F
3FFF
3FFF
3C00
3C00
3C00
3C00
0FFF
0FFF
0000
0000
0000
0000
0000
0000
ENDCHAR
STARTCHAR igrave
ENCODING 236
SWIDTH 800 0
DWIDTH 16 0
BBX 16 28 0 -6
BITMAP
0000
0000
0F00
0F00
03C0
03C0
0000
0000
3FC0
3FC0
03C0
03C0
03C0
03C0
03C0
03C0
03C0
03C0
03C0
03C0
03FC
03FC
0000
0000
0000
0000
0000
0000
ENDCHAR
STARTCHAR iacute
ENCODING 237
SWIDTH 800 0
DWIDTH 16 0
BBX 16 28 0 -6
BITMAP
0000
0000
00F0
00F0
03C0
03C0
0000
0000
3FC0
3FC0
03C0
03C0
03C0
03C0
03C0
03C0
03C0
03C0
03C0
03C0
03FC
03FC
0000
0000
0000
0000
0000
0000
ENDCHAR
STARTCHAR icircumflex
ENCODING 238
SWIDTH 800 0
DWIDTH 16 0
BBX 16 28 0 -6
BITMAP
0000
0000
0FC0
0FC0
3CF0
3CF0
0000
0000
3FC0
3FC0
03C0
03C0
03C0
03C0
03C0
03C0
03C0
03C0
03C0
03C0
03FC
03FC
0000
0000
0000
0000
0000
0000
ENDCHAR
STARTCHAR idieresis
ENCODING 239
SWIDTH 800 0
DWIDTH 16 0
BBX 16 28 0 -6
BITMAP
0000
0000
3CF0
3CF0
3CF0
3CF0
0000
0000
3FC0
3FC0
03C0
03C0
03C0
03C0
03C0
03C0
03C0
03C0
03C0
03C0
03FC
03FC
0000
0000
0000
0000
0000
0000
ENDCHAR
STARTCHAR eth
ENCODING 240
SWIDTH 800 0
DWIDTH 16 0
BBX 16 28 0 -6
BITMAP
0000
0000
0FF0
0FF0
03C0
03C0
0FF0
0FF0
0FFC
0FFC
3C0F
3C0F
3C0F
3C0F
3C0F
3C0F
3C0F
3C0F
3C0F
3C0F
0FFC
0FFC
0000
0000
0000
0000
0000
0000
ENDCHAR
STARTCHAR ntilde
ENCODING 241
SWIDTH 800 0
DWIDTH 16 0
BBX 16 28 0 -6
BITMAP
0000
0000
0FCF
0FCF
3CFC
3CFC
0000
0000
3FFC
3FFC
3C0F
3C0F
3C0F
3C0F
3C0F
3C0F
3C0F
3C0F
3C0F
3C0F
3C0F
3C0F
0000
0000
0000
0000
0000
0000
ENDCHAR
STARTCHAR ograve
ENCODING 242
SWIDTH 800 0
DWIDTH 16 0
BBX 16 28 0 -6
BITMAP
0000
0000
03C0
03C0
00F0
00F0
0000
0000
0FFC
0FFC
3C0F
3C0F
3C0F
3C0F
3C0F
3C0F
3C0F
3C0F
3C0F
3C0F
0FFC
0FFC
0000
0000
0000
0000
0000
0000
ENDCHAR
STARTCHAR oacute
ENCODING 243
SWIDTH 800 0
DWIDTH 16 0
BBX 16 28 0 -6
BITMAP
0000
0000
00F0
00F0
03C0
03C0
0000
0000
0FFC
0FFC
3C0F
3C0F
3C0F
3C0F
3C0F
3C0F
3C0F
3C0F
3C0F
3C0F
0FFC
0FFC
0000
0000
0000
0000
0000
0000
ENDCHAR
STARTCHAR ocircumflex
ENCODING 244
SWIDTH 800 0
DWIDTH 16 0
BBX 16 28 0 -6
BITMAP
0000
0000
03F0
03F0
0F3C
0F3C
0000
0000
0FFC
0FFC
3C0F
3C0F
3C0F
3C0F
3C0F
3C0F
3C0F
3C0F
3C0F
3C0F
0FFC
0FFC
0000
0000
0000
0000
0000
0000
ENDCHAR
STARTCHAR otilde
ENCODING 245
SWIDTH 800 0
DWIDTH 16 0
BBX 16 28 0 -6
BITMAP
0000
0000
0FCF
0FCF
3CFC
3CFC
0000
0000
0FFC
0FFC
3C0F
3C0F
3C0F
3C0F
3C0F
3C0F
3C0F
3C0F
3C0F
3C0F
0FFC
0FFC
0000
0000
0000
0000
0000
0000
ENDCHAR
STARTCHAR odieresis
ENCODING 246
SWIDTH 800 0
DWIDTH 16 0
BBX 16 28 0 -6
BITMAP
0000
0000
0F3C
0F3C
0F3C
0F3C
0000
0000
0FFC
0FFC
3C0F
3C0F
3C0F
3C0F
3C0F
3C0F
3C0F
3C0F
3C0F
3C0F
0FFC
0FFC
0000
0000
0000
0000
0000
0000
ENDCHAR
STARTCHAR divide
ENCODING 247
SWIDTH 800 0
DWIDTH 16 0
BBX 16 28 0 -6
BITMAP
0000
0000
0000
0000
0000
0000
0000
0000
03C0
03C0
03C0
03C0
0000
0000
3FFC
3FFC
0000
0000
03C0
03C0
03C0
03C0
0000
0000
0000
0000
0000
0000
ENDCHAR
STARTCHAR oslash
ENCODING 248
SWIDTH 800 0
DWIDTH 16 0
BBX 16 28 0 -6
BITMAP
0000
0000
0000
0000
0000
0000
000F
000F
0FFC
0FFC
3C3F
3C3F
3CFF
3CFF
3FCF
3FCF
3F0F
3F0F
3C0F
3C0F
FFFC
FFFC
0000
0000
0000
0000
0000
0000
ENDCHAR
STARTCHAR ugrave
ENCODING 249
SWIDTH 800 0
DWIDTH 16 0
BBX 16 28 0 -6
BITMAP
0000
0000
03C0
03C0
00F0
00F0
0000
0000
3C0F
3C0F
3C0F
3C0F
3C0F
3C0F
3C0F
3C0F
3C0F
3C0F
3C3F
3C3F
0FFF
0FFF
0000
0000
0000
0000
0000
0000
ENDCHAR
STARTCHAR uacute
ENCODING 250
SWIDTH 800 0
DWIDTH 16 0
BBX 16 28 0 -6
BITMAP
0000
0000
00F0
00F0
03C0
03C0
0000
0000
3C0F
3C0F
3C0F
3C0F
3C0F
3C0F
3C0F
3C0F
3C0F
3C0F
3C3F
3C3F
0FFF
0FFF
0000
0000
0000
0000
0000
0000
ENDCHAR
STARTCHAR ucircumflex
ENCODING 251
SWIDTH 800 0
DWIDTH 16 0
BBX 16 28 0 -6
BITMAP
0000
0000
03F0
03F0
0F3C
0F3C
0000
0000
3C0F
3C0F
3C0F
3C0F
3C0F
3C0F
3C0F
3C0F
3C0F
3C0F
3C3F
3C3F
0FFF
0FFF
0000
0000
0000
0000
0000
0000
ENDCHAR
STARTCHAR udieresis
ENCODING 252
SWIDTH 800 0
DWIDTH 16 0
BBX 16 28 0 -6
BITMAP
0000
0000
0F3C
0F3C
0F3C
0F3C
0000
0000
3C0F
3C0F
3C0F
3C0F
3C0F
3C0F
3C0F
3C0F
3C0F
3C0F
3C3F
3C3F
0FFF
0FFF
0000
0000
0000
0000
0000
0000
ENDCHAR
STARTCHAR yacute
ENCODING 253
SWIDTH 800 0
DWIDTH 16 0
BBX 16 28 0 -6
BITMAP
0000
0000
00F0
00F0
03C0
03C0
0000
0000
3C0F
3C0F
3C0F
3C0F
3C0F
3C0F
3C0F
3C0F
3C0F
3C0F
3C3F
3C3F
0FFF
0FFF
000F
000F
000F
000F
0FFC
0FFC
ENDCHAR
STARTCHAR thorn
ENCODING 254
SWIDTH 800 0
DWIDTH 16 0
BBX 16 28 0 -6
BITMAP
0000
0000
3C00
3C00
3C00
3C00
3C00
3C00
3FFC
3FFC
3C0F
3C0F
3C0F
3C0F
3C0F
3C0F
3C0F
3C0F
3C0F
3C0F
3FFC
3FFC
3C00
3C00
3C00
3C00
0000
0000
ENDCHAR
STARTCHAR ydieresis
ENCODING 255
SWIDTH 800 0
DWIDTH 16 0
BBX 16 28 0 -6
BITMAP
0000
0000
0F3C
0F3C
0F3C
0F3C
0000
0000
3C0F
3C0F
3C0F
3C0F
3C0F
3C0F
3C0F
3C0F
3C0F
3C0F
3C3F
3C3F
0FFF
0FFF
000F
000F
000F
000F
0FFC
0FFC
ENDCHAR
ENDFONT
